@startuml

abstract class AbstractList
abstract AbstractCollection
interface List
interface Collection

List <|-- AbstractList
Collection <|-- AbstractCollection

Collection <|- List
AbstractCollection <|- AbstractList
AbstractList <|-- ArrayList

class ArrayList {
Object[] elementData
size()
}

enum TimeUnit {
DAYS
HOURS
MINUTES
}


    private LinkedList<GObject> ObejectList = new LinkedList<>();
 	static private GUI gui = null;
	static FEConnection m_FEConnection = null;
	private int m_Port;
	private InetAddress m_Address;
    private final int FEPort;
    private final String FE_Address;
    private int ID = 0;

	public static void main(String[] args) throws IOException, ConfigurationException, ClassNotFoundException {
        if (args.length < 1) {
            System.err.println("Usage: not enough arguments");
            System.exit(-1);
        }
        InetAddress address = InetAddress.getByName(args[0]);
        int m_port = Integer.parseInt(args[1]);
        CadClient c = new CadClient(address,m_port);
	}

	private CadClient(InetAddress m_address, int m_port) throws ConfigurationException, IOException, ClassNotFoundException {
        m_Address = m_address;
        m_Port = m_port;
        XMLConfiguration conf = new XMLConfiguration("configuration.xml");
        int i = 0;
        for(i = 0;i < 4; i++){
            if(conf.getString("databases.database("+i+").role").equals("frontend"))
                break;
        }
        FEPort = conf.getInt("databases.database("+i+").port");
        FE_Address = conf.getString("databases.database("+i+").ip");
        m_FEConnection = new FEConnection(FE_Address,FEPort);
        m_FEConnection.start();//Keep receive message
        this.takeExpected();
	}

	private void takeExpected() throws IOException, ClassNotFoundException{
	    do{
            while(m_FEConnection.getLock()> m_FEConnection.getExpected()){
                operate(m_FEConnection.getMsg(m_FEConnection.getExpected()));
                m_FEConnection.removeFirst();
                m_FEConnection.increaseExpected();
            }
        } while(true);
    }

    public void operate(Message message) throws IOException {
        if(message.getCommand().equalsIgnoreCase("/draw")){
            Message ack = new Message(false,message.getID(),"/ack",null,true,m_Address,m_Port);
            m_FEConnection.sendChatMessage(ack);
            ObejectList.add(message.getObject());
        }
        else if(message.getCommand().equalsIgnoreCase("/remove")){
            Message ack = new Message(false,message.getID(),"/ack",null,true,m_Address,m_Port);
            m_FEConnection.sendChatMessage(ack);
            ObejectList.removeLast();
        }
        gui.setObjectList(ObejectList);
    }

	public InetAddress getM_Address(){
        return m_Address;
    }

    public int getM_Port(){
        return m_Port;
    }

    public FEConnection getM_FEConnection(){
	    return m_FEConnection;
    }

    public int increaseID(){
	    return ID++;
    }
@enduml